<svg xmlns="http://www.w3.org/2000/svg" xml:space="preserve" width="100%" version="1.1"
	 viewBox="0 0 8500 3800"  style="background-color: #f9f9f9;" >

	<defs>
		<linearGradient id="white-gradient-l-to-r">
			<stop stop-color="#fff" stop-opacity="0.5" offset="0" />
			<stop stop-color="#fff" stop-opacity="0" offset="1" />
		</linearGradient>
		<linearGradient id="white-gradient-r-to-l">
			<stop stop-color="#fff" stop-opacity="0" offset="0" />
			<stop stop-color="#fff" stop-opacity="0.5" offset="1" />
		</linearGradient>
		<linearGradient id="white-gradient-lt-to-rb" x1="0%" y1="0%" x2="100%" y2="100%">
			<stop stop-color="#fff" stop-opacity="0.5" offset="0" />
			<stop stop-color="#fff" stop-opacity="0" offset="1" />
		</linearGradient>
		<linearGradient id="fire-gradient-basic" x1="0%" y1="0%" x2="0%" y2="100%">
			<stop stop-color="#ffb200" offset="0.2" />
			<stop stop-color="#dc0000" offset="1" />
		</linearGradient>
		<linearGradient id="fire-gradient-red" x1="0%" y1="0%" x2="0%" y2="100%">
			<stop stop-color="#ffb200" offset="0" />
			<stop stop-color="#dc0000" offset="0.9" />
		</linearGradient>
		<linearGradient id="fire-gradient-yellow" x1="0%" y1="0%" x2="0%" y2="100%">
			<stop stop-color="#ffb200" offset="0.4" />
			<stop stop-color="#dc0000" offset="1" />
		</linearGradient>
		<linearGradient id="fire-gradient-double-yellow" x1="0%" y1="0%" x2="50%" y2="100%">
			<stop stop-color="#ffb200" offset="0.6" />
			<stop stop-color="#dc0000" offset="1" />
		</linearGradient>
		<linearGradient id="gray-gradient-l-t-r" x1="0%" y1="0%" x2="100%" y2="0%">
			<stop stop-color="#6b6b6b" offset="0" />
			<stop stop-color="#d0d0d0" offset="1" />
		</linearGradient>
		<linearGradient id="heater-gradient" x1="0%" y1="0%" x2="100%" y2="0%">
			<stop id="heater-gradient-left" stop-color="#00b" offset="0" />
			<stop stop-color="#00b" offset="0.8" />
		</linearGradient>
	</defs>


	<g class="ground">
		<rect fill="#00e5ff" opacity="0.7" x="5257" y="3379" width="1444" height="465"/>
		<path fill="#73441C" d="M-25 4289 l 8526 0 0 -1003 -1768 0c-96,325 -397,562 -752,562 -356,0 -656,-237 -752,-562l-5254 0 0 1003z"/>
		<circle fill="#73441C" cx="5700" cy="3731" r="93"/>
		<circle fill="#884F1D" cx="5958" cy="3748" r="93"/>
		<circle fill="#884F1D" cx="6281" cy="3750" r="85"/>
		<circle fill="#73441C" cx="5512" cy="3741" r="137"/>
		<circle fill="#884F1D" cx="6028" cy="3778" r="93"/>
		<circle fill="#73441C" cx="6147" cy="3849" r="183"/>
		<circle fill="#73441C" cx="6421" cy="3761" r="135"/>
		<circle fill="#884F1D" cx="5825" cy="3734" r="57"/>
		<circle fill="#884F1D" cx="6502" cy="3632" r="57"/>
		<circle fill="#73441C" cx="5885" cy="3854" r="143"/>
	</g>

	<g class="bacteria-scene" clip-path="url(#landfill-clip)" transform="translate(0, 2300)">
		<clipPath id="landfill-clip">
		  <rect x="0" y="0" width="3000" height="1000" />
		</clipPath>

		<g class="landfill" transform="translate(-100, 0)">
			<circle fill="#73441C" cx="2146" cy="297" r="207"/>
			<circle fill="#884F1D" cx="1975" cy="413" r="104"/>
			<circle fill="#884F1D" cx="2135" cy="453" r="104"/>
			<circle fill="#73441C" cx="2003" cy="767" r="355"/>
			<circle fill="#884F1D" cx="1749" cy="926" r="283"/>
			<circle fill="#884F1D" cx="2560" cy="921" r="281"/>
			<circle fill="#99561E" cx="1478" cy="1029" r="149"/>
			<circle fill="#99561E" cx="2376" cy="345" r="149"/>
			<g class="bottle">
				<path fill="#096551" d="M2205 259c-6,2 -9,9 -7,15l37 112c2,7 9,10 15,8l15 -5 -59 -181 -7 2c-2,1 -3,4 -3,6l14 41 -5 2z"/>
				<path fill="#0A7864" d="M2235 249c7,-2 13,1 15,7l37 113c2,6 -1,13 -7,15l-16 5 -59 -181 6 -2c3,-1 5,1 6,3l14 42 4 -2z"/>
				<path fill="#E26020" d="M2196 220l-2 -7c-1,-2 0,-4 2,-5l18 -6c2,0 4,1 5,2l2 8c1,2 0,4 -2,4l-19 6c-1,1 -3,0 -4,-2l0 0z"/>
				<path fill="#CF5A21" d="M2204 205l-9 4c-2,0 -3,2 -2,4l2 7c1,2 3,3 5,3l9 -4 -5 -14z"/>
			</g>
			<circle fill="#99561E" cx="2251" cy="392" r="78"/>
			<circle fill="#73441C" cx="2341" cy="666" r="316"/>
			<circle fill="#73441C" cx="2734" cy="1410" r="526"/>
			<circle fill="#73441C" cx="2283" cy="1168" r="450"/>
			<circle fill="#884F1D" cx="2680" cy="1050" r="280"/>
			<g class="bottle">
				<path fill="#096551" d="M2799 949c0,-8 -6,-14 -14,-14l-141 2c-8,0 -14,6 -14,14l0 20 227 -4 0 -7c0,-4 -3,-6 -6,-6l-52 1 0 -6z"/>
				<path fill="#0A7864" d="M2800 986c0,8 -6,15 -14,15l-141 1c-8,1 -14,-6 -14,-13l-1 -20 227 -3 0 8c0,3 -3,6 -6,6l-51 1 0 5z"/>
				<path fill="#E26020" d="M2847 952l9 0c2,0 4,2 4,4l0 23c1,3 -1,5 -4,5l-9 0c-2,0 -4,-2 -4,-4l-1 -24c0,-2 2,-4 5,-4l0 0z"/>
				<path fill="#CF5A21" d="M2860 967l0 -12c0,-2 -2,-4 -4,-4l-9 0c-3,0 -4,2 -4,4l0 12 17 0z"/>
			</g>
		</g>


		<g class="trash-dump" transform="translate(-150,0)">
			<circle class="trash" opacity="0" fill="#73441C" cx="1490" cy="859" r="75"></circle>
			<circle class="trash" opacity="0" fill="#73441C" cx="1606" cy="887" r="97"></circle>
			<circle class="trash" opacity="0" fill="#73441C" cx="1720" cy="778" r="110"></circle>
			<circle class="trash" opacity="0" fill="#73441C" cx="1831" cy="893" r="103"></circle>
			<circle class="trash" opacity="0" fill="#73441C" cx="1933" cy="974" r="81"></circle>

			<g class="trash--bottle" opacity="0">
				<path fill="#096551" d="M1422 841c-5,3 -6,9 -4,14l54 92c2,5 9,7 14,4l12 -8 -85 -147 -5 3c-2,1 -2,4 -1,6l19 34 -4 2z"/>
				<path fill="#0A7864" d="M1447 827c5,-3 11,-2 14,3l53 92c3,5 1,12 -4,15l-12 7 -85 -147 5 -3c2,-2 4,-1 6,1l19 34 4 -2z"/>
				<path fill="#E26020" d="M1407 808l-3 -5c-1,-2 -1,-4 1,-5l15 -9c1,-1 3,0 4,2l4 5c1,2 0,4 -1,5l-16 9c-1,1 -3,0 -4,-2z"/>
				<path fill="#CF5A21" d="M1412 794l-8 5c-1,0 -2,2 -1,4l3 6c1,1 3,2 5,1l7 -4 -6 -12z"/>
			</g>

			<circle class="trash" opacity="0" fill="#99561E" cx="1853" cy="968" r="104"></circle>
			<circle class="trash" opacity="0" fill="#99561E" cx="1773" cy="916" r="109"></circle>

			<circle class="trash" opacity="0" fill="#73441C" cx="1461" cy="974" r="98"></circle>
			<circle class="trash" opacity="0" fill="#884F1D" cx="1587" cy="951" r="81"></circle>
			<circle class="trash" opacity="0" fill="#99561E" cx="1646" cy="974" r="69"></circle>
			<circle class="trash" opacity="0" fill="#73441C" cx="1328" cy="974" r="87"></circle>
			<circle class="trash" opacity="0" fill="#99561E" cx="1640" cy="939" r="69"></circle>

			<g class="trash--bottle" opacity="0">
				<path fill="#096551" d="M1906 960c0,-7 -6,-13 -13,-13l-129 0c-7,0 -12,6 -12,13l0 18 206 0 0 -8c0,-3 -2,-5 -5,-5l-47 0 0 -5z"/>
				<path fill="#0A7864" d="M1906 994c0,7 -6,13 -13,13l-129 0c-7,0 -12,-6 -12,-13l0 -18 206 0 0 8c0,3 -2,5 -5,5l-47 0 0 5z"/>
				<path fill="#E26020" d="M1949 963l8 0c3,0 4,2 4,4l0 21c0,3 -1,4 -4,4l-8 0c-2,0 -4,-1 -4,-4l0 -21c0,-2 2,-4 4,-4l0 0z"/>
				<path fill="#CF5A21" d="M1961 977l0 -11c0,-2 -1,-4 -4,-4l-8 0c-2,0 -4,2 -4,4l0 11 16 0z"/>
			</g>
		</g>

		<g class="truck" transform="translate(-1700,0)" opacity="1" >
			<polygon fill="#096551" points="216,850 561,850 561,759 216,759 "/>
			<path fill="#0A7864" d="M436 595l96 0c16,0 29,14 29,30l0 137 -345 0c2,-13 14,-22 28,-24l145 -22c1,0 1,0 2,0 1,0 1,0 2,0l13 -91c3,-16 14,-30 30,-30l0 0z"/>
			<path fill="#DDECFA" d="M451 616l42 0c15,0 27,12 27,27l0 60c0,0 0,0 0,0 0,15 -12,27 -27,27l-47 0c-14,0 -33,-11 -30,-31l7 -56c3,-15 13,-27 28,-27z"/>
			<g class="truck-pump">
				<rect fill="#1F1B20" class="truck-pump-bottom" x="890" y="750" width="67" height="128" />
				<polygon fill="#1F1B20" points="874,811 974,811 974,727 874,727 "/>
			</g>
			<g class="truck-body">
				<path fill="#EF7A1B" d="M1041 427c0,-3 -3,-6 -6,-6l-484 28c-3,0 -6,3 -6,6l0 389c0,3 3,6 6,6l557 0c3,0 5,-3 5,-6l-72 -417z"/>
				<path fill="none" stroke="#da5500" stroke-width="15" d="M597 488l32 0m207 11c0,-6 5,-11 12,-11m-12 312l0 -301m12 312c-7,0 -12,-5 -12,-11m43 11l-31 0m42 -11c0,6 -5,11 -11,11m11 -312l0 301m-11 -312c6,0 11,5 11,11m-42 -11l31 0m-126 11c0,-6 5,-11 11,-11m-11 312l0 -301m11 312c-6,0 -11,-5 -11,-11m43 11l-32 0m43 -11c0,6 -5,11 -11,11m11 -312l0 301m-11 -312c6,0 11,5 11,11m-43 -11l32 0m-127 11c0,-6 5,-11 12,-11m-12 312l0 -301m12 312c-7,0 -12,-5 -12,-11m43 11l-31 0m42 -11c0,6 -5,11 -11,11m11 -312l0 301m-11 -312c6,0 11,5 11,11m-42 -11l31 0m-126 11c0,-6 5,-11 11,-11m-11 312l0 -301m11 312c-6,0 -11,-5 -11,-11m43 11l-32 0m43 -11c0,6 -5,11 -11,11m11 -312l0 301m-11 -312c6,0 11,5 11,11"/>
				<path fill="#E26020" d="M1041 427c0,-3 -3,-6 -6,-6l-77 5c8,43 74,424 77,424l73 0c3,0 5,-3 5,-6l-72 -417z"/>
				<path fill="#C94A22" fill-opacity="0.5" d="M545 644l0 200c0,3 3,6 6,6l557 0c3,0 5,-3 5,-6l-35 -200 -533 0z"/>
			</g>
			<path fill="#1F1B20" d="M1049 849c-3,0 -32,-39 -81,-39l0 0c-32,0 -60,15 -79,39l-445 0c-18,-23 -47,-38 -78,-38l0 0c-32,0 -60,15 -79,38l-68 0c-10,0 -19,9 -19,19l0 29c0,10 9,19 19,19 277,0 554,0 831,0 12,0 18,-7 18,-19 1,-10 1,-19 1,-29 0,-10 -9,-19 -20,-19l0 0z"/>
			<g class="wheel">
				<path fill="#656463" d="M445 911c0,-44 -36,-79 -79,-79 -44,0 -80,35 -80,79 0,44 36,79 80,79 43,0 79,-35 79,-79z"/>
				<path fill="#4A4A4A" d="M366 832c43,0 79,35 79,79 0,44 -36,79 -79,79l0 -158z M397 911c0,-18 -14,-32 -31,-32 -18,0 -32,14 -32,32 0,17 14,32 32,32 17,0 31,-15 31,-32z"/>
				<path fill="#2D2E2E" d="M366 879c17,0 31,14 31,32 0,17 -14,32 -31,32l0 -64z"/>
			</g>
			<g class="wheel">
				<path fill="#656463" d="M1045 911c0,-44 -36,-79 -80,-79 -43,0 -79,35 -79,79 0,44 36,79 79,79 44,0 80,-35 80,-79z"/>
				<path fill="#4A4A4A" d="M965 832c44,0 80,35 80,79 0,44 -36,79 -80,79l0 -158z M997 911c0,-18 -14,-32 -32,-32 -17,0 -31,14 -31,32 0,17 14,32 31,32 18,0 32,-15 32,-32z"/>
				<path fill="#2D2E2E" d="M965 879c18,0 32,14 32,32 0,17 -14,32 -32,32l0 -64z"/>
			</g>
		</g>

		<g class="dude" transform="translate(0,20)"  opacity="1" >
			<rect class="leg" fill="#a5a6a6" x="1982" y="900" width="17" height="70" rx="17" ry="7" data-svg-origin="1990.5 900" transform="matrix(0.98768,0.15643,-0.15643,0.98768,165.29737658158592,-300.3023091982036)" style="transform-origin: 0px 0px 0px;"></rect>
			<g class="pilus" fill="none" stroke="#a5a5a5" stroke-width="6" >
				<line x1="2086" y1="642" x2="1905" y2="642" />
				<line x1="2086" y1="663" x2="1905" y2="663" />
				<line x1="2086" y1="703" x2="2062" y2="703" />
				<line x1="2086" y1="683" x2="1905" y2="683" />
				<line x1="2086" y1="743" x2="2065" y2="743" />
				<line x1="2086" y1="764" x2="2065" y2="764" />
				<line x1="2086" y1="804" x2="2065" y2="804" />
				<line x1="2086" y1="723" x2="2065" y2="723" />
				<line x1="2086" y1="784" x2="2065" y2="784" />
				<line x1="2086" y1="824" x2="2065" y2="824" />
				<line x1="2086" y1="844" x2="2065" y2="844" />
				<line x1="2086" y1="622" x2="1905" y2="622" />
				<line x1="2086" y1="865" x2="2065" y2="863" />
				<line x1="2076" y1="577" x2="2052" y2="590" />
				<line x1="2061" y1="557" x2="2042" y2="578" />
				<line x1="2043" y1="543" x2="2028" y2="567" />
				<line x1="2020" y1="534" x2="2013" y2="562" />
				<line x1="1997" y1="531" x2="1998" y2="561" />
				<line x1="1973" y1="534" x2="1981" y2="563" />
				<line x1="1953" y1="543" x2="1967" y2="567" />
				<line x1="1934" y1="557" x2="1954" y2="577" />
				<line x1="1920" y1="575" x2="1943" y2="589" />
				<line x1="1911" y1="597" x2="1938" y2="604" />
				<line x1="2086" y1="596" x2="2059" y2="604" />
				<line x1="1918" y1="910" x2="1942" y2="896" />
				<line x1="1934" y1="929" x2="1952" y2="909" />
				<line x1="1951" y1="943" x2="1967" y2="919" />
				<line x1="1974" y1="953" x2="1982" y2="925" />
				<line x1="1998" y1="955" x2="1997" y2="925" />
				<line x1="2021" y1="952" x2="2013" y2="923" />
				<line x1="2041" y1="944" x2="2027" y2="919" />
				<line x1="2060" y1="929" x2="2040" y2="910" />
				<line x1="2075" y1="911" x2="2051" y2="897" />
				<line x1="1908" y1="890" x2="1936" y2="883" />
				<line x1="2086" y1="890" x2="2059" y2="883" />
			</g>
			<path class="head" stroke="#eee" stroke-width="3" fill="#ccc" d="M2063 732l-135 0 0 -107c0,-37 30,-68 67,-68 38,0 68,31 68,68l0 107z"/>
			<path class="jaw" stroke="#eee" stroke-width="3" fill="#aaa" d=" M 2063 728 l 0 136 a 67 67 0 0 1 -134, 0 l -18 -154 48 5 q 106.3, 8.5, 106.3, 8.5 l 0 0z"/>
			<path class="eye-white" fill="#fff" d="M1977 591c-19,0 -34,16 -34,35l0 33c0,19 15,34 34,34l0 0c19,0 34,-15 34,-34l0 -33c0,-19 -15,-35 -34,-35l0 0z"/>
			<circle class="pupil" fill="#111" cx="1960" cy="662" r="17"></circle>
			<path clip-path="url(#eye-lids-clip)" class="eyelid" fill="#b4b4b4" d="M2012 623c0,-20 -16,-35 -36,-35 -20,0 -36,15 -36,35l0 39c0,20 16,35 36,35 20,0 36,-15 36,-35l0 -39z"/>
			<clipPath id="eye-lids-clip">
				<rect class="eyelid-top" x="1925" width="101" y="588" height="65"/>
				<rect class="eyelid-bottom" x="1925" width="101" y="699" height="35"/>
			</clipPath>
			<g class="spots" fill="#3A3B3A" >
				<circle cx="2049" cy="865" r="12" />
				<circle cx="2038" cy="615" r="12" />
				<circle cx="1977" cy="904" r="9" />
				<circle cx="2052" cy="824" r="9" />
			</g>
			<rect class="leg" fill="#aaa" x="2000" y="900" width="17" height="70" rx="17" ry="7" data-svg-origin="2008.5 900" transform="matrix(0.98768,-0.15643,0.15643,0.98768,-116.06305062154206,325.27911649767975)" style="transform-origin: 0px 0px 0px;"></rect>
		</g>

		<g class="smell">
			<path fill="#efbf7d" transform="scale(5) translate(200, 33)" d="m 125.27071,54.11 c 10.57,-14.66 -7.41,-11.16 -5.61,-33.82 -7.53,21.36 9.35,20.62 5.61,33.82 z" />
			<path fill="#efbf7d" transform="scale(4.5) translate(490, -40)" d="m 33.490714,67.44 c -4.07,-19.35 15.69,-10.11 12,-36.59 -2.36,23.37 -21.72,14.12 -12,36.59 z" />
			<path fill="#efbf7d" transform="scale(5) translate(520, 80)" d="m 33.490714,67.44 c -4.07,-19.35 15.69,-10.11 12,-36.59 -2.36,23.37 -21.72,14.12 -12,36.59 z" />
		</g>
	</g>


	<symbol id="blower" viewBox="0 0 100 100">
		<g class="blower--output">
			<rect fill="#6b6b6b" height="16" width="50" y="14.833" x="50"/>
			<rect fill="#6b6b6b" height="22" width="8" y="11.833" x="92"/>
			<rect fill="#818583" height="14" width="50" y="15.833" x="50"/>
			<rect fill="#d0d0d0" height="10" width="50" y="17.833" x="50"/>
			<rect fill="#ffffff" height="7" width="50" y="19.333" x="50"/>
		</g>

		<circle fill="#d0d0d0" stroke="#6b6b6b" stroke-width="1" r="34.7" cy="50" cx="50"/>
		<circle fill="none" stroke="#6b6b6b" stroke-width="1" r="28.2" cy="50" cx="50"/>
		<circle fill="none" stroke="#6b6b6b" stroke-width="1" r="13.8" cy="50" cx="50"/>

		<g class="blower--pins" fill="#6b6b6b" >
			<polygon id="gas-blower-pin" points="51.463,16.488 52.426,18.155 51.463,19.823 49.537,19.823 48.574,18.155 49.537,16.488 "/>
			<use href="#gas-blower-pin" transform="rotate(30 50 50)"/>
			<use href="#gas-blower-pin" transform="rotate(60 50 50)"/>
			<use href="#gas-blower-pin" transform="rotate(90 50 50)"/>
			<use href="#gas-blower-pin" transform="rotate(120 50 50)"/>
			<use href="#gas-blower-pin" transform="rotate(150 50 50)"/>
			<use href="#gas-blower-pin" transform="rotate(180 50 50)"/>
			<use href="#gas-blower-pin" transform="rotate(210 50 50)"/>
			<use href="#gas-blower-pin" transform="rotate(240 50 50)"/>
			<use href="#gas-blower-pin" transform="rotate(270 50 50)"/>
			<use href="#gas-blower-pin" transform="rotate(300 50 50)"/>
			<use href="#gas-blower-pin" transform="rotate(330 50 50)"/>
			<use href="#gas-blower-pin" transform="rotate(0 50 50) translate(0 21)"/>
			<use href="#gas-blower-pin" transform="rotate(60 50 50) translate(0 21)"/>
			<use href="#gas-blower-pin" transform="rotate(120 50 50) translate(0 21)"/>
			<use href="#gas-blower-pin" transform="rotate(180 50 50) translate(0 21)"/>
			<use href="#gas-blower-pin" transform="rotate(240 50 50) translate(0 21)"/>
			<use href="#gas-blower-pin" transform="rotate(300 50 50) translate(0 21)"/>
		</g>
		<g class="blower--output">
			<path fill="#6b6b6b" d="M 50,57.667 H 0 v -16 h 50 c 4.418,0 8,3.582 8,8 0,4.418 -3.582,8 -8,8 z"/>
			<path fill="#6b6b6b" d="M 8,60.667 H 0 v -22 h 8"/>
			<path fill="#818583" d="m 50,56.667 c 3.866,0 7,-3.134 7,-7 0,-3.866 -3.134,-7 -7,-7 H 0 v 14 c 0,0 50,0 50,0 z"/>
			<path fill="#d0d0d0" d="M 50,44.667 H 0 v 10 c 0,0 50,0 50,0 2.761,0 5,-2.239 5,-5 0,-2.762 -2.239,-5 -5,-5 z"/>
			<path fill="#ffffff" d="M 50,53.167 H 0 v -7 h 50 c 1.933,0 3.5,1.567 3.5,3.5 0,1.933 -1.567,3.5 -3.5,3.5 z"/>
		</g>
	</symbol>

	<symbol id="flame" viewBox="0 0 120 50" stroke-width="0.5" stroke-opacity="0.5">
		<path class="flame--spark" fill="#ffd700" stroke="#ff0" d="M13 90c-8,-10 -6,-14 -5,-21 3,-3 0,-7 -2,-19 8,11 18,12 7,40l0 0z"></path>
		<path class="flame--spark" fill="#ffd700" stroke="#ff0" d="M36 45c8,-10 6,-14 5,-21 -3,-3 0,-7 2,-19 -8,11 -18,12 -7,40l0 0z"></path>
		<path class="flame--spark" fill="#ffd700" stroke="#ff0" d="M63 48c8,-10 6,-14 5,-21 -3,-3 0,-7 2,-19 -8,11 -18,12 -7,40l0 0z"></path>
		<path class="flame--spark" fill="#ffd700" stroke="#ff0" d="M83 80c-8,-10 -6,-14 -5,-21 3,-3 0,-7 -2,-19 8,11 18,12 7,40l0 0z"></path>
		<path class="flame--spark" fill="#ffd700" stroke="#ff0" d="M94 126c8,-10 6,-14 5,-21 -3,-3 0,-7 2,-19 -8,11 -18,12 -7,40l0 0z"></path>
		<path class="flame--back" fill="url(#fire-gradient-basic)" stroke="#ff0" d="M46 50c1,13 -15,26 -13,44 0,11 -4,-17 -2,-26 -1,-8 -3,-16 -9,-21 8,42 -28,33 -5,88 -4,-2 -8,-4 -12,-7 4,13 9,21 15,28 9,9 21,13 39,16 13,4 28,2 38,-6 10,-7 15,-19 12,-34 -3,6 -7,10 -13,12 3,-17 -14,-25 -7,-42 10,-20 3,-45 0,-32 -4,12 -11,21 -20,29 22,-70 -10,-53 -11,-88 -9,12 -14,23 -12,39z"></path>
		<path transform="scale(0.95) translate(0 10)" fill="url(#white-gradient-l-to-r)" opacity="0.7" d="M46 50c1,13 -15,26 -13,44 0,11 -4,-17 -2,-26 -1,-8 -3,-16 -9,-21 8,42 -28,33 -5,88 -4,-2 -8,-4 -12,-7 4,13 9,21 15,28 9,9 21,13 39,16 13,4 28,2 38,-6 10,-7 15,-19 12,-34 -3,6 -7,10 -13,12 3,-17 -14,-25 -7,-42 10,-20 3,-45 0,-32 -4,12 -11,21 -20,29 22,-70 -10,-53 -11,-88 -9,12 -14,23 -12,39z"></path>
		<path class="flame--left" fill="url(#fire-gradient-double-yellow)" stroke="#ff0" d="M51 168c-55,-58 30,-62 -11,-121 11,39 -13,64 -21,76 -5,-15 -1,-21 5,-39 -38,42 -9,63 27,84l0 0z"></path>
		<path transform="scale(1.1) translate(0 -10)" fill="url(#white-gradient-l-to-r)" opacity="0.7" d="M51 168c-55,-58 30,-62 -11,-121 11,39 -13,64 -21,76 -5,-15 -1,-21 5,-39 -38,42 -9,63 27,84l0 0z"></path>
		<path class="flame--middle" fill="url(#fire-gradient-yellow)" stroke-width="0.5" stroke="#ff0" d="M48 168c-1,-14 -3,-25 15,-38 31,-22 16,-34 -3,-57 5,22 -4,40 -12,52 -5,8 -23,23 0,43z"></path>
		<path class="flame--right" fill="url(#fire-gradient-red)" stroke="#ff0" d="M63 172c9,-5 11,-20 12,-37 2,-17 7,-33 34,-36 -11,9 -20,20 -16,41 -1,31 -24,29 -30,32l0 0z"></path>
		<path transform="scale(1.1) translate(-10 -10)" fill="url(#white-gradient-r-to-l)" opacity="0.5" d="M63 172c9,-5 11,-20 12,-37 2,-17 7,-33 34,-36 -11,9 -20,20 -16,41 -1,31 -24,29 -30,32l0 0z"></path>
	</symbol>

	<symbol id="chiller" viewBox="0 0 259 284">
		<polygon fill="#d0d0d0" stroke="#6b6b6b" stroke-width="6" points="250,19 250,264 1,264 1,19 "/>
  		<g>
			<rect fill="none" stroke="#6b6b6b" stroke-width="6" x="22" y="206" width="206.38" height="59.1809"/>
			<path fill="none" stroke="#6b6b6b" stroke-width="6" d="M22 216l206 0m-195 -10l0 57m12 -57l0 57m11 -57l0 57m12 -57l0 57m11 -57l0 57m12 -57l0 57m11 -57l0 57m115 -57l0 57m-104 -57l0 57m12 -57l0 57m11 -57l0 57m12 -57l0 57m11 -57l0 57m12 -57l0 57m11 -57l0 57m12 -57l0 57m11 -57l0 57m-183 -8l206 0m-206 -10l206 0m-206 -10l206 0m-206 -9l206 0"/>
  		</g>
		<polygon fill="#6b6b6b" points="228,265 228,283 210,283 210,265 "/>
		<polygon fill="#6b6b6b" points="39,265 39,283 20,283 20,265 "/>
		<rect fill="none" stroke="#6b6b6b" stroke-width="6" x="22" y="19" width="207" height="244"/>
		<ellipse fill="black" cx="11" cy="212" rx="6" ry="10"/>
		<ellipse fill="black" cx="11" cy="67" rx="8" ry="7"/>
		<ellipse fill="black" cx="11" cy="86" rx="8" ry="7"/>
		<ellipse fill="black" cx="11" cy="106" rx="8" ry="7"/>
		<path fill="black" d="M96 16c0,0 3,-2 5,-4 1,0 3,4 5,4 3,-3 2,-3 7,-5l0 5c0,1 1,2 2,2l22 0c1,0 2,-1 2,-2l0 -4c5,2 4,3 6,5 1,0 4,-5 4,-5 5,1 4,1 7,4 2,0 9,-7 10,-9 2,-2 0,-3 -2,-4 -9,-3 -66,-3 -76,0 -2,1 -5,2 -3,5 2,3 7,8 11,8z"/>
	</symbol>

	<symbol id="filter" viewBox="0 0 850 1100">
		<rect fill="url(#gray-gradient-l-t-r)" stroke="#6b6b6b" stroke-width="25" x="131" y="48" width="600" height="999"/>
		<rect fill="#eee" stroke="#6b6b6b" stroke-width="25" x="141" y="410" width="579" height="213"/>
		<path fill="none" stroke="#6b6b6b" stroke-width="5" d="M720 587l-579 0m547 -177l0 207m-514 -207l0 207m32 -207l0 207m32 -207l0 207m32 -207l0 207m32 -207l0 207m32 -207l0 207m33 -207l0 207m32 -207l0 207m32 -207l0 207m32 -207l0 207m32 -207l0 207m32 -207l0 207m32 -207l0 207m33 -207l0 207m32 -207l0 207m32 -207l0 207m64 -171l-579 0m579 35l-579 0m579 36l-579 0m579 35l-579 0"/>
		<g>
			<rect fill="#333" x="85" y="4" width="693" height="55"/>
			<rect fill="#333" x="85" y="1044" width="693" height="55"/>
		</g>
	</symbol>

	<symbol id="flare-candlestick" viewBox="0 0 1210 3123">
		<polygon fill="#6b6b6b" stroke="#2B2A29" stroke-width="1" points="95,1669 402,1669 402,1308 95,1308 "/>
		<path fill="#2B2A29" stroke="black" stroke-width="4" d="M82 1638c-1,-3 -14,-15 -20,-29 -1,-2 20,-14 20,-20 -19,-17 -17,-10 -26,-37l23 0c6,0 11,-4 11,-10l0 -112c0,-6 -5,-11 -11,-11l-20 0c10,-24 14,-16 25,-28 0,-4 -23,-19 -26,-21 5,-22 9,-20 21,-35 1,-7 -35,-47 -43,-51 -12,-9 -19,3 -22,13 -15,46 -17,328 0,381 3,10 11,22 23,13 18,-9 41,-33 45,-53z"/>
		<polygon fill="url(#gray-gradient-l-t-r)" stroke="#6b6b6b" stroke-width="30" points="1167,3123 401,3123 401,56 1167,56 "/>
		<rect fill="#111" x="359" width="851" height="55"/>
		<rect fill="#111" x="359" y="3100" width="851" height="55"/>
		<rect fill="none" stroke="#2B2A29" stroke-width="4" x="404" y="2864" width="764" height="216"/>
		<path fill="none" stroke="#2B2A29" stroke-width="4" d="M1125 2864l0 211m42 -174l-763 0m763 36l-763 0m763 36l-763 0m763 36l-763 0m763 36l-763 0m85 -181l0 211m43 -211l0 211m42 -211l0 211m42 -211l0 211m43 -211l0 211m42 -211l0 211m43 -211l0 211m42 -211l0 211m43 -211l0 211m-382 -211l0 211m424 -211l0 211m42 -211l0 211m43 -211l0 211m42 -211l0 211m43 -211l0 211m42 -211l0 211"/>
		<g>
			<ellipse fill="#333" stroke="black" stroke-width="2" cx="792" cy="334" rx="59" ry="57"/>
			<ellipse fill="#333" stroke="black" stroke-width="2" cx="792" cy="1141" rx="59" ry="57"/>
			<ellipse fill="#333" stroke="black" stroke-width="2" cx="809" cy="1871" rx="59" ry="57"/>
			<ellipse fill="#333" stroke="black" stroke-width="2" cx="809" cy="2019" rx="59" ry="57"/>
			<ellipse fill="#333" stroke="black" stroke-width="2" cx="809" cy="2166" rx="59" ry="57"/>
		</g>
	</symbol>

	<symbol id="heat-exchanger" viewBox="-1200 0 3600 3300">
		<polyline fill="none" stroke="url(#heater-gradient)" stroke-width="105" stroke-linecap="round" stroke-linejoin="round" points="1790,-18 2308,-18 2308,1412 2098,1832 1888,1412 1678,1832 1468,1412 1258,1832 1048,1412 838,1832 628,1412 418,1832 208,1412 208,908 -1018,908 -1018,-23 1790,-23"/>
	</symbol>

	<symbol id="generator" viewBox="500 1000 1500 1200">
		  <rect fill="#B3B3B3" x="650" y="2022" width="1250" height="92"/>
		  <polygon fill="#B3B3B3" points="1243,1646 1332,1723 1332,1997 1175,1997 1121,1959 886,1959 886,1646 "/>
		  <rect fill="#B3B3B3" x="770" y="1666" width="197" height="189"/>
		  <rect fill="#B3B3B3" x="1259" y="1740" width="155" height="229"/>
		  <rect fill="#B3B3B3" x="1343" y="1723" width="127" height="273"/>
		  <rect fill="#B3B3B3" x="1467" y="1743" width="409" height="230"/>
		  <rect fill="#B3B3B3" x="1674" y="1670" width="191.074" height="73"/>
		  <polygon fill="#B3B3B3" points="1674,1654 1674,1499 1890,1499 1865,1654 "/>
		  <circle fill="#B3B3B3" cx="1327" cy="1607" r="76"/>
		  <rect fill="#B3B3B3" x="684" y="1979" width="92.589" height="60.6"/>
		  <rect fill="#B3B3B3" x="870" y="1959" width="77.4378" height="81"/>
		  <rect fill="#B3B3B3" x="1270" y="1959" width="77.4378" height="81"/>
		  <rect fill="#B3B3B3" x="1493" y="1959" width="77.4378" height="81"/>
		  <rect fill="#B3B3B3" x="1692" y="1959" width="77.4378" height="81"/>
		  <rect fill="#B3B3B3" x="981" y="1488" width="57.2362" height="161.613"/>
		  <path fill="#B3B3B3" d="M944 1656l-36 0 0 -44c0,-12 -10,-22 -22,-22l-101 0 0 -36 101 0c32,0 58,26 58,58l0 44 0 0z"/>
		  <path fill="#B3B3B3" d="M1102 1653l-35 0 0 -39c0,-31 26,-56 58,-56l198 0 0 35 -198 0c-13,0 -23,9 -23,21l0 39 0 0z"/>
		  <path fill="#B3B3B3" d="M956 1506c0,-16 24,-30 53,-30 30,0 54,14 54,30l-107 0zm0 0l0 0 0 0z"/>
		  <rect fill="#d0d0d0" x="1467" y="1743" width="409.087" height="75.548"/>
		  <rect fill="#d0d0d0" x="665" y="1511" width="131" height="479"/>
		  <rect fill="#fff" x="1115" y="1674" width="55.5496" height="75.7606"/>
		  <rect fill="#fff" x="1173" y="1674" width="66.6614" height="103.512"/>
		  <rect fill="#B3B3B3" x="1296" y="2051" width="563.135" height="63"/>
		  <rect fill="#B3B3B3" x="690" y="2051" width="563.135" height="63"/>
		  <circle fill="#111" cx="1327" cy="1607" r="25"/>
		  <path fill="#B3B3B3" d="M1006 1871c-13,0 -24,-9 -27,-22 0,2 -1,4 -1,7 0,15 13,27 28,27 15,0 28,-12 28,-27 0,-3 0,-5 -1,-7 -3,13 -14,22 -27,22z"/>
		  <rect fill="#B3B3B3" x="1467" y="1900" width="409.087" height="73.2378"/>
		  <path fill="#B3B3B3" d="M1006 1780c-13,0 -24,-9 -27,-22 0,2 -1,5 -1,7 0,15 13,27 28,27 15,0 28,-12 28,-27 0,-2 0,-5 -1,-7 -3,13 -14,22 -27,22z"/>
		  <path fill="#D0D0D0" d="M988 1767c0,-10 8,-17 18,-17 10,0 18,7 18,17l0 76c0,10 -8,18 -18,18 -10,0 -18,-8 -18,-18l0 -76z"/>
		  <rect fill="#6b6b6b" x="1362" y="1777" width="86.9244" height="166.663"/>
		  <circle fill="#6b6b6b" cx="1505" cy="1894" r="7"/>
		  <circle fill="#6b6b6b" cx="1591" cy="1894" r="7"/>
		  <circle fill="#6b6b6b" cx="1677" cy="1894" r="7"/>
		  <circle fill="#6b6b6b" cx="1763" cy="1894" r="7"/>
		  <circle fill="#6b6b6b" cx="1849" cy="1894" r="7"/>
		  <circle fill="#6b6b6b" cx="1505" cy="1835" r="7"/>
		  <circle fill="#6b6b6b" cx="1591" cy="1835" r="7"/>
		  <circle fill="#6b6b6b" cx="1677" cy="1835" r="7"/>
		  <circle fill="#6b6b6b" cx="1763" cy="1835" r="7"/>
		  <circle fill="#6b6b6b" cx="1849" cy="1835" r="7"/>
		  <path fill="#6b6b6b" d="M1024 1843c0,10 -8,18 -18,18 -10,0 -18,-8 -18,-18l36 0z"/>
		  <polygon fill="#111" points="681,1530 681,1973 675,1973 675,1524 781,1524 781,1530 "/>
		  <polygon fill="#6b6b6b" points="888,1979 888,2019 880,2019 880,1968 939,1968 939,1979 "/>
		  <polygon fill="#6b6b6b" points="1284,1979 1284,2019 1277,2019 1277,1968 1336,1968 1336,1979 "/>
		  <polygon fill="#6b6b6b" points="1506,1994 1506,2022 1499,2022 1499,1984 1558,1984 1558,1994 "/>
		  <polygon fill="#6b6b6b" points="1709,1994 1709,2022 1702,2022 1702,1984 1761,1984 1761,1994 "/>
		  <rect fill="#6b6b6b" x="1529" y="1767" width="87" height="46"/>
		  <rect fill="#6b6b6b" x="1779" y="1917" width="87" height="46"/>
		  <rect fill="#6b6b6b" x="1347" y="1984" width="123" height="13"/>
		  <polygon fill="#6b6b6b" points="1270,1997 1270,1969 1259,1969 1259,1959 1121,1959 1175,1997 "/>
		  <path fill="#111" d="M1059 1652c0,-3 -3,-6 -6,-6l-2 0c-3,0 -6,-3 -6,-6l0 -1c0,-3 -3,-6 -6,-6l-8 0c-3,0 -6,3 -6,6l0 1c0,3 -2,6 -4,6 -3,0 -5,-3 -5,-6l0 -1c0,-3 -2,-6 -6,-6l-20 0c-3,0 -6,3 -6,6l0 1c0,3 -3,6 -6,6l-3 0c-4,0 -7,-3 -7,-6l0 -1c0,-3 -2,-6 -6,-6l-20 0c-3,0 -6,3 -6,6l0 1c0,3 -3,6 -6,6l-1 0c-3,0 -6,3 -6,6l0 38c0,3 3,6 6,6l1 0c3,0 6,3 6,6l0 1c0,3 3,6 6,6l20 0c4,0 6,-3 6,-6l0 -1c0,-3 3,-6 7,-6l3 0c3,0 6,3 6,6l0 1c0,3 3,6 6,6l20 0c4,0 6,-3 6,-6l0 -1c0,-3 2,-6 5,-6 2,0 4,3 4,6l0 1c0,3 3,6 6,6l8 0c3,0 6,-3 6,-6l0 -1c0,-3 3,-6 6,-6l2 0c3,0 6,-3 6,-6l0 -38 0 0z"/>
		  <path fill="#111" d="M987 1816l-6 0c-5,0 -10,-5 -13,-10l-16 -28c-3,-6 -5,-15 -5,-21l0 -54 7 0 0 54c0,5 2,13 5,17l15 28c2,4 6,7 7,7l6 0 0 7 0 0z"/>
		  <path fill="#111" d="M1137 1786l-78 0c-8,0 -14,-6 -14,-14l0 -34c0,-4 -3,-7 -6,-7l-20 0c-6,0 -14,-3 -18,-6 -4,-4 -6,-10 -6,-15l0 -7 7 0 0 7c0,3 2,7 5,9 2,2 7,5 12,5l20 0c8,0 14,6 14,14l0 34c0,4 3,7 6,7l78 0c4,0 7,-3 7,-7l0 -22 7 0 0 22c0,8 -6,14 -14,14l0 0z"/>
		  <path fill="#111" d="M1198 1806l-126 0c-8,0 -14,-6 -14,-14l0 -32c0,-4 -3,-9 -7,-10 -7,-3 -21,-13 -21,-31l0 -11 8 0 0 11c0,17 15,23 15,24 7,2 12,10 12,17l0 32c0,4 3,7 7,7l126 0c3,0 6,-3 6,-7l0 -15 8 0 0 15c0,8 -6,14 -14,14l0 0z"/>
		  <rect fill="#6b6b6b" x="1690" y="1653" width="23" height="16"/>
		  <rect fill="#6b6b6b" x="1823" y="1653" width="23" height="16"/>
		  <polygon fill="#6b6b6b" points="1459,1770 1459,1953 1356,1953 1356,1948 1454,1948 1454,1770 "/>
		  <polygon fill="#6b6b6b" points="702,2115 702,2064 1253,2064 1253,2051 690,2051 690,2115 "/>
		  <polygon fill="#6b6b6b" points="1309,2115 1309,2064 1860,2064 1860,2051 1296,2051 1296,2115 "/>
		  <path fill="white" d="M1006 1743c13,0 24,9 27,22 1,-2 1,-4 1,-7 0,-15 -13,-27 -28,-27 -15,0 -28,12 -28,27 0,3 1,5 1,7 3,-13 14,-22 27,-22z"/>
		  <path fill="white" d="M994 1763c0,-7 6,-12 12,-12 7,0 12,5 12,12l-24 0zm0 0l0 0 0 0z"/>
	</symbol>

	<symbol id="electricity" viewBox="0 0 1200 209">
		<g class="sine-waves" fill="none" stroke-width="6">
			<path stroke="#00b" d="M6447 99c-10,0 -2047,0 -2112,0 -10,1 -36,23 -46,23 -21,0 -49,-70 -70,-70 -21,0 -49,120 -69,120 -21,0 -49,-139 -69,-139 -21,0 -49,176 -69,176 -21,0 -49,-177 -70,-177 -20,0 -48,165 -69,165 -20,0 -48,-173 -69,-173 -21,0 -48,173 -69,173 -21,0 -48,-171 -69,-171 -21,0 -49,171 -69,171 -21,0 -49,-185 -69,-185 -21,0 -49,173 -70,173 -20,0 -48,-173 -69,-173 -20,0 -48,173 -69,173 -21,0 -48,-175 -69,-175 -21,0 -48,175 -69,175 -21,0 -48,-173 -69,-173 -21,0 -49,183 -69,183 -21,0 -49,-183 -69,-183 -21,0 -49,185 -70,185 -20,0 -48,-197 -69,-197 -20,0 -48,185 -69,185 -21,0 -48,-166 -69,-166 -21,0 -48,154 -69,154 -21,0 -48,-127 -69,-127 -21,0 -50,75 -71,75 -21,0 -47,-38 -67,-38 -14,0 -19,15 -35,16l-2387 0"/>
			<path stroke="#0b0" d="M6542 99c-10,0 -2060,0 -2125,0 -10,1 -24,15 -34,15 -21,0 -49,-41 -70,-41 -20,0 -48,65 -69,65 -20,0 -48,-94 -69,-94 -21,0 -48,150 -69,150 -21,0 -48,-180 -69,-180 -21,0 -48,183 -69,183 -21,0 -49,-173 -69,-173 -21,0 -49,159 -69,159 -21,0 -49,-147 -70,-147 -20,0 -48,144 -69,144 -20,0 -48,-175 -69,-175 -21,0 -48,180 -69,180 -21,0 -48,-185 -69,-185 -21,0 -49,179 -70,179 -20,0 -48,-179 -68,-179 -21,0 -49,179 -69,179 -21,0 -49,-159 -70,-159 -20,0 -48,160 -68,160 -21,0 -49,-180 -70,-180 -21,0 -48,189 -69,189 -21,0 -48,-189 -69,-189 -21,0 -49,185 -69,185 -21,0 -49,-173 -69,-173 -21,0 -49,161 -70,161 -20,0 -48,-133 -69,-133 -20,0 -48,109 -69,109 -21,0 -47,-90 -68,-90 -14,0 -22,38 -41,40l-2381 0"/>
			<path stroke="#b00" d="M6495 99c-11,0 -2061,0 -2125,0 -11,1 -24,15 -35,15 -20,0 -48,-54 -69,-54 -21,0 -49,96 -70,96 -21,0 -47,-132 -68,-132 -21,0 -48,175 -69,175 -21,0 -49,-175 -69,-175 -21,0 -49,173 -69,173 -21,0 -49,-180 -70,-180 -20,0 -48,166 -69,166 -20,0 -48,-167 -69,-167 -21,0 -48,173 -68,173 -21,0 -50,-170 -70,-170 -21,0 -49,160 -70,160 -20,0 -48,-173 -68,-173 -21,0 -49,172 -70,172 -20,0 -48,-178 -69,-178 -20,0 -48,185 -69,185 -20,0 -48,-173 -69,-173 -21,0 -48,173 -69,173 -21,0 -48,-173 -69,-173 -21,0 -49,185 -69,185 -21,0 -49,-185 -69,-185 -21,0 -49,169 -70,169 -20,0 -48,-169 -69,-169 -20,0 -48,165 -69,165 -21,0 -48,-141 -69,-141 -21,0 -48,102 -69,102 -21,0 -48,-66 -69,-66 -14,0 -19,26 -35,27l-2387 0"/>
        </g>
	</symbol>

	<path stroke="#ddd" fill="none" stroke-width="90" d="M3000,2000 h 3600 "></path>
	<path stroke="#ddd" fill="none" stroke-width="90" d="M3000,2000 h 2900 v 1100 "></path>
	<path stroke="#ddd" fill="none" stroke-width="90" d="M3000,2000 h 540 v -1000 h 3200 "></path>

	<g class="bubbles">
		<circle class="bubble bubble--fart" fill="#76ff03" cx="2085" cy="3150" r="0"/>
		<circle class="bubble bubble--fart" fill="#00e5ff" cx="2085" cy="3150" r="0"/>
		<circle class="bubble bubble--fart" fill="#00e5ff" cx="2085" cy="3150" r="0"/>
		<circle class="bubble bubble--fart" fill="#00e5ff" cx="2085" cy="3150" r="0"/>
		<circle class="bubble bubble--fart" fill="#00e5ff" cx="2085" cy="3150" r="0"/>
		<circle class="bubble bubble--fart" fill="#76ff03" cx="2085" cy="3150" r="0"/>
		<circle class="bubble bubble--fart" fill="#76ff03" cx="2085" cy="3150" r="0"/>
		<circle class="bubble bubble--fart" fill="#76ff03" cx="2085" cy="3150" r="0"/>
		<circle class="bubble bubble--fart" fill="#76ff03" cx="2085" cy="3150" r="0"/>
		<circle class="bubble bubble--fart" fill="#00e5ff" cx="2085" cy="3150" r="0"/>
		<circle class="bubble bubble--fart" fill="#00e5ff" cx="2085" cy="3150" r="0"/>
		<circle class="bubble bubble--fart" fill="#00e5ff" cx="2085" cy="3150" r="0"/>
		<circle class="bubble bubble--fart" fill="#00e5ff" cx="2085" cy="3150" r="0"/>
		<circle class="bubble bubble--fart" fill="#76ff03" cx="2085" cy="3150" r="0"/>
		<circle class="bubble bubble--fart" fill="#76ff03" cx="2085" cy="3150" r="0"/>
		<circle class="bubble bubble--fart" fill="#76ff03" cx="2085" cy="3150" r="0"/>
		<circle class="bubble bubble--fart" fill="#76ff03" cx="2085" cy="3150" r="0"/>
		<circle class="bubble bubble--fart" fill="#00e5ff" cx="2085" cy="3150" r="0"/>
		<circle class="bubble bubble--fart" fill="#00e5ff" cx="2085" cy="3150" r="0"/>
		<circle class="bubble bubble--fart" fill="#00e5ff" cx="2085" cy="3150" r="0"/>
		<circle class="bubble bubble--fart" fill="#00e5ff" cx="2085" cy="3150" r="0"/>
		<circle class="bubble bubble--fart" fill="#76ff03" cx="2085" cy="3150" r="0"/>
		<circle class="bubble bubble--fart" fill="#76ff03" cx="2085" cy="3150" r="0"/>
		<circle class="bubble bubble--fart" fill="#76ff03" cx="2085" cy="3150" r="0"/>

		<circle class="bubble bubble--tube bubble--flame" fill="#76ff03" cx="3035" cy="2000" opacity="0.7" r="50"/>
		<circle class="bubble bubble--tube bubble--flame" fill="#00e5ff" cx="3035" cy="2000" opacity="0.7" r="50"/>
		<circle class="bubble bubble--tube bubble--water" fill="#00e5ff" cx="3035" cy="2000" opacity="0.7" r="50"/>
		<circle class="bubble bubble--tube bubble--water" fill="#00e5ff" cx="3035" cy="2000" opacity="0.7" r="50"/>
		<circle class="bubble bubble--tube bubble--water" fill="#00e5ff" cx="3035" cy="2000" opacity="0.7" r="50"/>
		<circle class="bubble bubble--tube bubble--electricity" fill="#76ff03" cx="3035" cy="2000" opacity="0.7" r="50"/>
		<circle class="bubble bubble--tube bubble--electricity" fill="#76ff03" cx="3035" cy="2000" opacity="0.7" r="50"/>
		<circle class="bubble bubble--tube bubble--electricity" fill="#76ff03" cx="3035" cy="2000" opacity="0.7" r="50"/>
		<circle class="bubble bubble--tube bubble--flame" fill="#76ff03" cx="3035" cy="2000" opacity="0.7" r="50"/>
		<circle class="bubble bubble--tube bubble--flame" fill="#00e5ff" cx="3035" cy="2000" opacity="0.7" r="50"/>
		<circle class="bubble bubble--tube bubble--water" fill="#00e5ff" cx="3035" cy="2000" opacity="0.7" r="50"/>
		<circle class="bubble bubble--tube bubble--water" fill="#00e5ff" cx="3035" cy="2000" opacity="0.7" r="50"/>
		<circle class="bubble bubble--tube bubble--water" fill="#00e5ff" cx="3035" cy="2000" opacity="0.7" r="50"/>
		<circle class="bubble bubble--tube bubble--electricity" fill="#76ff03" cx="3035" cy="2000" opacity="0.7" r="50"/>
		<circle class="bubble bubble--tube bubble--electricity" fill="#76ff03" cx="3035" cy="2000" opacity="0.7" r="50"/>
		<circle class="bubble bubble--tube bubble--electricity" fill="#76ff03" cx="3035" cy="2000" opacity="0.7" r="50"/>
		<circle class="bubble bubble--tube bubble--flame" fill="#76ff03" cx="3035" cy="2000" opacity="0.7" r="50"/>
		<circle class="bubble bubble--tube bubble--flame" fill="#00e5ff" cx="3035" cy="2000" opacity="0.7" r="50"/>
		<circle class="bubble bubble--tube bubble--water" fill="#00e5ff" cx="3035" cy="2000" opacity="0.7" r="50"/>
		<circle class="bubble bubble--tube bubble--water" fill="#00e5ff" cx="3035" cy="2000" opacity="0.7" r="50"/>
		<circle class="bubble bubble--tube bubble--water" fill="#00e5ff" cx="3035" cy="2000" opacity="0.7" r="50"/>
		<circle class="bubble bubble--tube bubble--electricity" fill="#76ff03" cx="3035" cy="2000" opacity="0.7" r="50"/>
		<circle class="bubble bubble--tube bubble--electricity" fill="#76ff03" cx="3035" cy="2000" opacity="0.7" r="50"/>
		<circle class="bubble bubble--tube bubble--electricity" fill="#76ff03" cx="3035" cy="2000" opacity="0.7" r="50"/>

		<circle class="bubble bubble--tube bubble--flame" fill="#76ff03" cx="3035" cy="2000" opacity="0.7" r="50"/>
		<circle class="bubble bubble--tube bubble--flame" fill="#00e5ff" cx="3035" cy="2000" opacity="0.7" r="50"/>
		<circle class="bubble bubble--tube bubble--water" fill="#00e5ff" cx="3035" cy="2000" opacity="0.7" r="50"/>
		<circle class="bubble bubble--tube bubble--water" fill="#00e5ff" cx="3035" cy="2000" opacity="0.7" r="50"/>
		<circle class="bubble bubble--tube bubble--water" fill="#00e5ff" cx="3035" cy="2000" opacity="0.7" r="50"/>
		<circle class="bubble bubble--tube bubble--electricity" fill="#76ff03" cx="3035" cy="2000" opacity="0.7" r="50"/>
		<circle class="bubble bubble--tube bubble--electricity" fill="#76ff03" cx="3035" cy="2000" opacity="0.7" r="50"/>
		<circle class="bubble bubble--tube bubble--electricity" fill="#76ff03" cx="3035" cy="2000" opacity="0.7" r="50"/>
		<circle class="bubble bubble--tube bubble--flame" fill="#76ff03" cx="3035" cy="2000" opacity="0.7" r="50"/>
		<circle class="bubble bubble--tube bubble--flame" fill="#00e5ff" cx="3035" cy="2000" opacity="0.7" r="50"/>
		<circle class="bubble bubble--tube bubble--water" fill="#00e5ff" cx="3035" cy="2000" opacity="0.7" r="50"/>
		<circle class="bubble bubble--tube bubble--water" fill="#00e5ff" cx="3035" cy="2000" opacity="0.7" r="50"/>
		<circle class="bubble bubble--tube bubble--water" fill="#00e5ff" cx="3035" cy="2000" opacity="0.7" r="50"/>
		<circle class="bubble bubble--tube bubble--electricity" fill="#76ff03" cx="3035" cy="2000" opacity="0.7" r="50"/>
		<circle class="bubble bubble--tube bubble--electricity" fill="#76ff03" cx="3035" cy="2000" opacity="0.7" r="50"/>
		<circle class="bubble bubble--tube bubble--electricity" fill="#76ff03" cx="3035" cy="2000" opacity="0.7" r="50"/>
		<circle class="bubble bubble--tube bubble--flame" fill="#76ff03" cx="3035" cy="2000" opacity="0.7" r="50"/>
		<circle class="bubble bubble--tube bubble--flame" fill="#00e5ff" cx="3035" cy="2000" opacity="0.7" r="50"/>
		<circle class="bubble bubble--tube bubble--water" fill="#00e5ff" cx="3035" cy="2000" opacity="0.7" r="50"/>
		<circle class="bubble bubble--tube bubble--water" fill="#00e5ff" cx="3035" cy="2000" opacity="0.7" r="50"/>
		<circle class="bubble bubble--tube bubble--water" fill="#00e5ff" cx="3035" cy="2000" opacity="0.7" r="50"/>
		<circle class="bubble bubble--tube bubble--electricity" fill="#76ff03" cx="3035" cy="2000" opacity="0.7" r="50"/>
		<circle class="bubble bubble--tube bubble--electricity" fill="#76ff03" cx="3035" cy="2000" opacity="0.7" r="50"/>
		<circle class="bubble bubble--tube bubble--electricity" fill="#76ff03" cx="3035" cy="2000" opacity="0.7" r="50"/>
	</g>

	<use xlink:href="#blower" x="2600" y="260" width="600" />
	<use xlink:href="#filter" x="5700" y="150" width="400"/>

	<use xlink:href="#heat-exchanger" x="3800" y="100" width="1200"/>
	<use xlink:href="#chiller" x="4000" y="-500" width="300"/>
	<use xlink:href="#chiller" x="4300" y="-500" width="300"/>
	<use xlink:href="#chiller" x="4600" y="-500" width="300"/>

	<use xlink:href="#electricity" x="7600" y="230" width="1500"/>
	<use xlink:href="#generator" x="6300" y="-50" width="1400"/>

	<use class="flame" opacity="0" xlink:href="#flame" x="6550" y="-1750" width="300"/>
	<use xlink:href="#flare-candlestick" x="6500" y="-1040" width="300"/>


    <text y="1800" font-size="70" style="font-family:sans-serif;fill:#0b0b0b;" >
        <tspan x="1200" text-anchor="middle" font-size="140">
			Landfill
		</tspan>
        <tspan x="1200" text-anchor="middle" dy="140">
			Bacteria eats organic material (like food waste),
		</tspan>
        <tspan x="1200" text-anchor="middle" dy="80">
			 digests it, and turns it into a gas
		</tspan>
        <tspan x="1200" text-anchor="middle" dy="80">
			that contains mostly methane and water.
		</tspan>
    </text>

	<text y="2400" font-size="70" style="font-family:sans-serif;fill:#0b0b0b;" >
		<tspan x="3400" text-anchor="middle" font-size="140">
			Blower
		</tspan>
        <tspan x="3400" text-anchor="middle" dy="140">
			Pulls the gas out of the landfill,
		</tspan>
        <tspan x="3400" text-anchor="middle" dy="80">
			so that we can put it to good use
		</tspan>
	</text>

	<text y="2400" font-size="70" style="font-family:sans-serif;fill:#0b0b0b;" >
		<tspan x="4700" text-anchor="middle" font-size="140">
			Heat Exchanger
		</tspan>
        <tspan x="4700" text-anchor="middle" dy="140">
			Cools the gas, which makes it
		</tspan>
        <tspan x="4700" text-anchor="middle" dy="80">
			easier to separate
		</tspan>
	</text>

	<text y="300" font-size="70" style="font-family:sans-serif;fill:#0b0b0b;" >
		<tspan x="5900" text-anchor="middle" font-size="140">
			Flare
		</tspan>
        <tspan x="5900" text-anchor="middle" dy="140">
			When the engine is not working
		</tspan>
        <tspan x="5900" text-anchor="middle" dy="80">
			or is shut down for maintenance,
		</tspan>
        <tspan x="5900" text-anchor="middle" dy="80">
			the flare burns the methane gas
		</tspan>
        <tspan x="5900" text-anchor="middle" dy="80">
			so that it does not damage
		</tspan>
        <tspan x="5900" text-anchor="middle" dy="80">
			our atmosphere!
		</tspan>
	</text>

	<text y="1430" font-size="70" style="font-family:sans-serif;fill:#0b0b0b;" >
		<tspan x="5920" text-anchor="middle" font-size="140">
			Filter
		</tspan>
        <tspan x="5920" text-anchor="middle" dy="140">
			Separates
		</tspan>
        <tspan x="5920" text-anchor="middle" dy="80">
			methane and water
		</tspan>
	</text>

	<text y="2850" font-size="70" style="font-family:sans-serif;fill:#0b0b0b;" >
		<tspan x="6700" text-anchor="middle" font-size="140">
			Condensate Water
		</tspan>
        <tspan x="6700" text-anchor="middle" dy="140">
			This water is pretty dirty, so
		</tspan>
        <tspan x="6700" text-anchor="middle" dy="80">
			it gets recycled back into the landfill.
		</tspan>
	</text>

	<text y="1430" font-size="70" style="font-family:sans-serif;fill:#0b0b0b;" >
		<tspan x="7900" text-anchor="middle" font-size="140">
			Engine-Generator
		</tspan>
        <tspan x="7900" text-anchor="middle" dy="140">
			Turns the methane gas
		</tspan>
        <tspan x="7900" text-anchor="middle" dy="80">
			into electrical power
		</tspan>
	</text>
</svg>
