<svg xmlns="http://www.w3.org/2000/svg" viewBox="0 0 293.2 292.8">
    <path d="M146.6,292.8C65.8,292.8,0,227.1,0,146.4S65.8,0,146.6,0s146.6,65.7,146.6,146.4-65.8,146.4-146.6,146.4h0Zm123.6-126.4c-4.3-1.4-38.8-11.6-78-5.3,16.4,44.9,23,81.6,24.3,89.2,28.1-19,48.1-49,53.7-83.8h0Zm-74.7,95.3c-1.9-11-9.1-49.2-26.7-94.8-.3,0-.6,.2-.8,.3-70.6,24.6-96,73.5-98.2,78.1,21.2,16.5,47.9,26.4,76.9,26.4s33.9-3.5,48.9-9.9h0Zm-142-31.5c2.8-4.8,37.2-61.7,101.8-82.5,1.6-.5,3.3-1,4.9-1.5-3.1-7.1-6.6-14.2-10.2-21.2-62.5,18.7-123.2,17.9-128.7,17.8,0,1.3,0,2.5,0,3.8,0,32.1,12.2,61.4,32.2,83.6h0ZM24,121c5.6,0,57.2,.3,115.8-15.2-20.7-36.8-43.1-67.8-46.4-72.3C58.3,49.9,32.1,82.2,24,121h0ZM117.3,25c3.5,4.6,26.2,35.6,46.7,73.2,44.5-16.7,63.4-42,65.6-45.2-22.1-19.6-51.2-31.5-83-31.5s-19.9,1.2-29.3,3.5h0Zm126.3,42.5c-2.6,3.6-23.6,30.4-69.9,49.3,2.9,6,5.7,12,8.3,18.1,.9,2.2,1.8,4.3,2.7,6.5,41.7-5.2,83.1,3.2,87.2,4-.3-29.5-10.8-56.6-28.3-77.9h0Z"/>
</svg>