<svg xmlns="http://www.w3.org/2000/svg" viewBox="0 0 386 414">
    <defs>
        <clipPath id="heart-clip">
            <path d="M191,207l-3-6C162,162,112,54,51,70c-73,51,98,267,137,286,38,6,146-172,162-238a99,99,0,0,0,2-19c0-8-1-18-7-24s-38-5-52,5h0S246,113,191,207Z"/>
        </clipPath>
        <style type="text/css">
            @-webkit-keyframes draw {
            0% {stroke-dashoffset: 3300;}
            70% {stroke-dashoffset: 0;}
            100% {stroke-dashoffset: 0;}
            }
            @keyframes draw {
            0% {stroke-dashoffset: 3300;}
            70% {stroke-dashoffset: 0;}
            100% {stroke-dashoffset: 0;}
            }
            path {
            -webkit-animation: draw 2s ease-in-out infinite;
            animation: draw 2s ease-in-out infinite;
            }
        </style>
    </defs>
    <path style="fill:none;stroke:#E50093;stroke-width:50;stroke-linecap:round;stroke-linejoin:round;stroke-dasharray:3300;stroke-dashoffset:3300;"
          clip-path="url(#heart-clip)"
          d="M120,0 C 88,77-2,154,3,160S182,47,189,57,2,223,7,228,183,98,192,109,24,280,31,289,349,44,356,53,73,310,88,329s76-36,84-42C304,201,387,88,383,85S112,361,121,370,325,193,333,202s-64,83-185,211">
    </path>
</svg>